PathFileType	4	(X/Y/Z)	/Users/itak/Documents/Research/Walk-IL/dataset/trc/00535_00009.trc
DataRate	CameraRate	NumFrames	NumMarkers	Units	OrigDataRate	OrigDataStartFrame	OrigNumFrames
100.000000	100.000000	4	53	mm	100.000000	697	797
Frame#	Time	RPSI			LPSI			L3			STRN			T10			C7			CLAV			RBAK			LBAK			LSHO			LUPA			LAEL			LAOL			LWTS			LWPS			LFRA			LIFD			LHPS			LHTS			RSHO			RUPA			RAEL			RAOL			RWTS			RWPS			RFRA			RIFD			RHTS			RHPS			RBHD			LFHD			RFHD			LBHD			LHIP			RHIP			RASI			LASI			LKNE			LTHI			LANK			LTIP			LTOE			LMT1			LMT5			LHEE			RKNE			RTHI			RANK			RTIP			RTOE			RMT1			RMT5			RHEE			
		X1	Y1	Z1	X2	Y2	Z2	X3	Y3	Z3	X4	Y4	Z4	X5	Y5	Z5	X6	Y6	Z6	X7	Y7	Z7	X8	Y8	Z8	X9	Y9	Z9	X10	Y10	Z10	X11	Y11	Z11	X12	Y12	Z12	X13	Y13	Z13	X14	Y14	Z14	X15	Y15	Z15	X16	Y16	Z16	X17	Y17	Z17	X18	Y18	Z18	X19	Y19	Z19	X20	Y20	Z20	X21	Y21	Z21	X22	Y22	Z22	X23	Y23	Z23	X24	Y24	Z24	X25	Y25	Z25	X26	Y26	Z26	X27	Y27	Z27	X28	Y28	Z28	X29	Y29	Z29	X30	Y30	Z30	X31	Y31	Z31	X32	Y32	Z32	X33	Y33	Z33	X34	Y34	Z34	X35	Y35	Z35	X36	Y36	Z36	X37	Y37	Z37	X38	Y38	Z38	X39	Y39	Z39	X40	Y40	Z40	X41	Y41	Z41	X42	Y42	Z42	X43	Y43	Z43	X44	Y44	Z44	X45	Y45	Z45	X46	Y46	Z46	X47	Y47	Z47	X48	Y48	Z48	X49	Y49	Z49	X50	Y50	Z50	X51	Y51	Z51	X52	Y52	Z52	X53	Y53	Z53	

698	6.97	1166.700317382812	1023.976623535156	542.8181762695312	1187.257690429688	1023.031860351562	411.0497131347656	1179.150024414062	1118.308837890625	469.6478576660156	1415.677368164062	1297.523315429688	486.1253356933594	1169.999145507812	1242.912841796875	461.6307678222656	1229.001098632812	1514.621337890625	473.0909118652344	1399.73046875	1408.462768554688	482.7684020996094	1144.238037109375	1395.536865234375	555.2127685546875	1203.970947265625	1462.318359375	376.9462280273438	1312.730224609375	1481.3232421875	308.6703491210938	1312.967163085938	1354.415893554688	229.2177886962891	1338.59814453125	1131.59423828125	214.5810546875	1243.357543945312	1124.365478515625	249.1622314453125	1418.329223632812	887.864013671875	279.6906433105469	1386.832763671875	865.4953002929688	201.049072265625	1361.641235351562	1044.977661132812	213.2112731933594	1416.126220703125	716.7745361328125	272.5947875976562	1393.32177734375	805.4891357421875	210.673583984375	1436.460083007812	810.5405883789062	262.7148742675781	1271.985229492188	1477.666015625	634.0945434570312	1245.70263671875	1415.230712890625	699.985107421875	1229.86962890625	1128.90576171875	756.2138061523438	1177.854248046875	1111.028930664062	724.2151489257812	1370.492309570312	911.555908203125	741.8192749023438	1319.243530273438	892.7560424804688	803.1491088867188	1238.978637695312	1073.88720703125	767.4522094726562	1388.621459960938	739.93505859375	754.4694213867188	1400.71435546875	822.7290649414062	764.3925170898438	1340.110473632812	819.6480712890625	807.9706420898438	1310.626098632812	1689.08349609375	549.9863891601562	1474.304443359375	1708.498046875	423.0220031738281	1449.127563476562	1706.10791015625	565.8670654296875	1346.008178710938	1689.652954101562	388.9096984863281	1339.087890625	937.8135375976562	295.9622192382812	1271.19140625	952.5556030273438	682.8137817382812	1366.076293945312	981.57080078125	636.00341796875	1399.909912109375	964.2190551757812	361.9466857910156	1339.262084960938	495.7893371582031	386.7514953613281	1348.343139648438	658.1087646484375	343.9970397949219	1260.72216796875	33.11629104614258	407.7377014160156	1277.615112304688	250.4614105224609	386.6044311523438	1449.987670898438	41.26399230957031	515.1099853515625	1371.142211914062	47.50430297851562	531.1948852539062	1381.953735351562	34.39855194091797	423.3043823242188	1181.228271484375	38.59832382202148	443.0308837890625	1318.994873046875	506.3187866210938	650.8843383789062	1318.51123046875	797.5661010742188	686.9644775390625	1229.797485351562	43.11077117919922	633.7504272460938	1319.510986328125	362.0795288085938	641.1033935546875	1453.27392578125	42.59682083129883	622.72607421875	1394.185424804688	41.39056396484375	573.2360229492188	1358.639404296875	43.44972229003906	671.0021362304688	1182.256469726562	35.91889572143555	571.783203125	
699	6.98	1168.293090820312	1024.37939453125	543.6260986328125	1188.72314453125	1023.131225585938	411.8639221191406	1180.495727539062	1118.344970703125	470.43896484375	1416.470581054688	1297.873413085938	487.0047607421875	1170.981323242188	1242.834350585938	462.5115966796875	1229.375	1514.65234375	474.3326416015625	1400.317626953125	1408.797973632812	483.8486328125	1144.996826171875	1395.294311523438	556.4811401367188	1204.353759765625	1462.369018554688	378.1542663574219	1313.1123046875	1481.763671875	309.8978271484375	1313.833862304688	1354.9208984375	230.3881530761719	1340.587158203125	1132.23974609375	215.8148651123047	1245.392456054688	1124.47509765625	250.3177642822266	1422.055419921875	889.2225952148438	281.2545776367188	1390.67626953125	866.48876953125	202.6698303222656	1364.220947265625	1045.792602539062	214.5470581054688	1421.094604492188	718.0610961914062	274.4614562988281	1397.6298828125	806.5455932617188	212.3387145996094	1440.734985351562	811.9867553710938	264.4033813476562	1272.515625	1477.650024414062	635.2985229492188	1246.416137695312	1415.1572265625	701.2147216796875	1231.26123046875	1128.739868164062	757.2737426757812	1179.240356445312	1110.730712890625	725.2947387695312	1372.338134765625	911.718017578125	742.7645263671875	1321.154174804688	892.795166015625	804.1090698242188	1240.508056640625	1073.751220703125	768.445068359375	1390.774780273438	740.0993041992188	755.3414916992188	1402.7060546875	822.9158325195312	765.2879028320312	1342.175170898438	819.7753295898438	808.9297485351562	1310.871337890625	1689.198974609375	551.4583740234375	1474.464111328125	1708.870239257812	424.4418640136719	1449.356201171875	1706.25634765625	567.2775268554688	1346.186157226562	1690.028198242188	390.3551940917969	1340.518310546875	937.8865356445312	296.8789978027344	1272.724243164062	952.9569091796875	683.6826782226562	1367.597900390625	981.7723999023438	636.9052734375	1401.3642578125	964.30517578125	362.7950439453125	1340.40380859375	495.7187194824219	387.6329345703125	1349.67041015625	658.0181274414062	344.639404296875	1260.802856445312	33.35354614257812	407.8023071289062	1278.3818359375	250.4771270751953	387.0760192871094	1450.064208984375	41.09210205078125	515.3557739257812	1371.184448242188	47.35762023925781	531.4036865234375	1381.985229492188	34.49728012084961	423.4346313476562	1181.255981445312	38.74375152587891	443.2265625	1316.83837890625	506.4039611816406	651.553955078125	1319.21728515625	797.7465209960938	687.7581176757812	1229.735473632812	42.98610305786133	633.8399658203125	1317.5009765625	362.3952026367188	641.4581298828125	1453.217041015625	42.65562057495117	622.7637939453125	1394.150146484375	41.51924514770508	573.3157958984375	1358.598388671875	43.38176727294922	671.1604614257812	1182.154052734375	35.87660980224609	571.9276733398438	
700	6.99	1169.867919921875	1024.734252929688	544.450927734375	1190.183959960938	1023.20947265625	412.6885681152344	1181.869873046875	1118.329833984375	471.2311706542969	1417.248168945312	1298.184204101562	487.9020080566406	1171.961059570312	1242.709594726562	463.4024658203125	1229.7314453125	1514.651977539062	475.5481262207031	1400.890869140625	1409.099731445312	484.9236145019531	1145.71533203125	1395.010009765625	557.7124633789062	1204.734008789062	1462.354858398438	379.3673706054688	1313.5048828125	1482.169799804688	311.1187133789062	1314.719970703125	1355.403442382812	231.5474090576172	1342.552001953125	1132.8603515625	216.9999084472656	1247.380981445312	1124.570068359375	251.3948516845703	1425.768432617188	890.611328125	282.8826904296875	1394.535034179688	867.4708251953125	204.3572998046875	1366.773803710938	1046.592895507812	215.8742828369141	1426.084350585938	719.3840942382812	276.4620056152344	1401.963012695312	807.6005249023438	214.0945739746094	1445.01220703125	813.4647216796875	266.1907043457031	1273.035522460938	1477.59228515625	636.4844360351562	1247.085083007812	1415.035888671875	702.4221801757812	1232.61328125	1128.54833984375	758.3172607421875	1180.588989257812	1110.405517578125	726.3615112304688	1374.168334960938	911.8788452148438	743.7528686523438	1323.032958984375	892.8201293945312	805.0933227539062	1242.0029296875	1073.594360351562	769.4312744140625	1392.944946289062	740.2681884765625	756.2697143554688	1404.697509765625	823.1076049804688	766.23876953125	1344.2138671875	819.8970336914062	809.9139404296875	1311.050537109375	1689.260986328125	552.9201049804688	1474.56689453125	1709.254760742188	425.8537902832031	1449.52099609375	1706.404296875	568.69384765625	1346.310302734375	1690.368530273438	391.7960510253906	1341.937255859375	937.950927734375	297.7958679199219	1274.216186523438	953.2926635742188	684.5678100585938	1369.099731445312	981.9263916015625	637.8125	1402.814208984375	964.3790893554688	363.6475524902344	1341.487915039062	495.6498107910156	388.4178466796875	1350.95751953125	657.9390258789062	345.2115783691406	1260.872802734375	33.54824066162109	407.8640747070312	1279.088012695312	250.5154113769531	387.4625549316406	1450.130249023438	40.93852615356445	515.5700073242188	1371.227172851562	47.24254989624023	531.5863037109375	1382.005493164062	34.59210205078125	423.5501403808594	1181.266967773438	38.86370086669922	443.4138488769531	1314.602783203125	506.4605102539062	652.1549682617188	1319.932495117188	797.8435668945312	688.5614624023438	1229.677001953125	42.88499069213867	633.8989868164062	1315.43505859375	362.6913452148438	641.7910766601562	1453.162353515625	42.70402145385742	622.8045043945312	1394.118286132812	41.63025283813477	573.3840942382812	1358.548950195312	43.31783676147461	671.3046875	1182.036743164062	35.81104278564453	572.025634765625	
701	7	1171.413330078125	1025.017944335938	545.30322265625	1191.634887695312	1023.257141113281	413.53076171875	1183.276977539062	1118.243408203125	472.0368347167969	1418.008911132812	1298.442626953125	488.8258361816406	1172.927001953125	1242.527221679688	464.3168640136719	1230.07080078125	1514.609375	476.7391357421875	1401.447631835938	1409.355346679688	486.0007934570312	1146.390625	1394.678344726562	558.9071044921875	1205.119506835938	1462.2724609375	380.5822143554688	1313.9091796875	1482.520874023438	312.3309326171875	1315.625610351562	1355.843139648438	232.6934661865234	1344.496826171875	1133.430419921875	218.1352996826172	1249.321899414062	1124.625854492188	252.3788452148438	1429.454467773438	892.0037231445312	284.5749816894531	1398.408813476562	868.4165649414062	206.1113586425781	1369.303344726562	1047.353881835938	217.1889190673828	1431.099853515625	720.7247314453125	278.59228515625	1406.3232421875	808.63232421875	215.9433288574219	1449.288452148438	814.9556884765625	268.0785217285156	1273.542724609375	1477.4794921875	637.6564331054688	1247.716552734375	1414.853149414062	703.60546875	1233.926879882812	1128.317993164062	759.3511962890625	1181.902099609375	1110.04345703125	727.4244384765625	1375.9814453125	912.0204467773438	744.7752685546875	1324.883422851562	892.814453125	806.0999145507812	1243.461669921875	1073.4013671875	770.42138671875	1395.137817382812	740.4288940429688	757.2462158203125	1406.693359375	823.2877807617188	767.2368774414062	1346.234008789062	819.9932861328125	810.9198608398438	1311.165771484375	1689.260864257812	554.3683471679688	1474.619506835938	1709.637939453125	427.2577819824219	1449.626953125	1706.543090820312	570.1122436523438	1346.3857421875	1690.659301757812	393.2304382324219	1343.346923828125	937.9959106445312	298.7160949707031	1275.640014648438	953.5490112304688	685.4827270507812	1370.5771484375	982.0126342773438	638.7280883789062	1404.261840820312	964.4303588867188	364.5067443847656	1342.5048828125	495.5795593261719	389.1073303222656	1352.199829101562	657.8636474609375	345.7315673828125	1260.927734375	33.69881057739258	407.9317932128906	1279.7353515625	250.5757446289062	387.7606506347656	1450.188842773438	40.80176162719727	515.7493286132812	1371.273071289062	47.1518669128418	531.7453002929688	1382.01513671875	34.67966079711914	423.6531982421875	1181.264038085938	38.95730972290039	443.5851135253906	1312.328002929688	506.4776916503906	652.6539306640625	1320.632690429688	797.8406372070312	689.3707275390625	1229.62109375	42.80839157104492	633.9171752929688	1313.349243164062	362.9552001953125	642.0900268554688	1453.108764648438	42.74568939208984	622.84521484375	1394.087158203125	41.71907043457031	573.4351806640625	1358.490966796875	43.26216506958008	671.4222412109375	1181.91552734375	35.71785736083984	572.05810546875	
